<?xml version="1.0" standalone="no"?>
<!DOCTYPE svg PUBLIC "-//W3C//DTD SVG 20010904//EN"
 "http://www.w3.org/TR/2001/REC-SVG-20010904/DTD/svg10.dtd">
<svg version="1.0" xmlns="http://www.w3.org/2000/svg"
 width="260.000000pt" height="260.000000pt" viewBox="0 0 260.000000 260.000000"
 preserveAspectRatio="xMidYMid meet">
<metadata>
Created by potrace 1.11, written by Peter Selinger 2001-2013
</metadata>
<g transform="translate(0.000000,260.000000) scale(0.100000,-0.100000)"
fill="#000000" stroke="none">
<path d="M789 2323 c-1 -5 0 -16 1 -27 1 -11 -3 -15 -9 -12 -11 7 -15 -12 -12
-44 1 -8 -9 2 -24 23 -25 36 -47 49 -42 25 1 -7 -6 -12 -16 -11 -17 1 -17 -1
3 -22 14 -15 18 -25 11 -30 -14 -8 -51 3 -51 16 0 5 -5 9 -11 9 -6 0 -8 -9 -4
-22 4 -13 9 -31 12 -42 3 -11 1 -16 -5 -12 -6 3 -13 2 -17 -4 -3 -5 -11 -10
-16 -10 -6 0 -7 5 -3 12 4 7 3 8 -4 4 -6 -4 -21 -2 -32 4 -16 8 -20 8 -20 -4
0 -21 -42 -48 -54 -36 -6 6 -17 10 -25 10 -12 0 -11 -3 2 -18 24 -26 21 -33
-9 -22 -39 15 -42 12 -10 -13 l29 -24 -31 -66 c-17 -37 -40 -77 -52 -89 -12
-13 -19 -31 -17 -40 3 -9 -2 -27 -11 -40 -15 -21 -15 -22 1 -9 9 7 17 9 17 3
0 -5 -12 -17 -26 -27 -18 -11 -23 -20 -15 -24 8 -5 5 -13 -9 -26 -11 -10 -20
-24 -20 -31 0 -7 -6 -15 -12 -18 -7 -3 0 -3 16 1 27 5 28 5 16 -18 -18 -33
-15 -267 5 -342 21 -80 19 -94 -10 -101 -14 -4 -25 -14 -25 -23 0 -30 43 -103
61 -103 12 0 17 -6 14 -19 -4 -20 34 -44 80 -53 29 -5 46 -75 22 -93 -19 -14
-13 -25 14 -25 13 0 21 -12 29 -42 6 -24 22 -79 35 -123 23 -76 48 -176 59
-238 3 -15 14 -43 26 -62 11 -18 22 -47 25 -64 5 -45 27 -85 53 -96 12 -5 24
-17 27 -25 10 -30 93 -110 115 -110 12 0 31 -5 42 -11 24 -13 144 4 188 27 39
20 81 70 74 88 -3 9 -1 16 5 16 6 0 11 7 11 15 0 8 4 15 9 15 17 0 50 67 38
79 -7 7 -7 14 1 23 5 7 19 36 30 63 11 28 47 109 81 182 61 131 77 189 46 163
-12 -10 -15 -10 -15 1 -1 8 -10 -3 -21 -24 -25 -48 -43 -49 -35 -2 13 69 -13
95 -56 55 -12 -11 -35 -19 -52 -19 -60 1 -132 -8 -153 -20 -12 -6 -37 -11 -56
-11 -19 0 -40 -7 -47 -15 -11 -13 -15 -13 -21 -3 -6 9 -9 7 -9 -9 0 -12 6 -24
13 -26 10 -4 10 -6 0 -6 -7 -1 -13 -11 -13 -24 0 -28 -45 -70 -68 -64 -15 4
-15 5 1 6 9 0 17 5 17 11 0 6 -9 6 -26 -1 -20 -7 -32 -6 -51 6 -13 9 -27 13
-32 11 -5 -3 -14 1 -21 9 -6 7 -19 11 -27 8 -12 -5 -15 -2 -10 10 3 9 2 17 -3
17 -6 0 -10 -8 -10 -17 0 -10 -4 -14 -8 -8 -4 6 -16 15 -27 21 -11 6 -29 28
-40 50 -11 21 -22 41 -25 44 -7 7 -5 44 4 58 3 6 2 13 -4 17 -5 3 -10 -2 -10
-12 -1 -16 -2 -16 -12 2 -7 11 -11 36 -9 55 2 19 0 32 -4 28 -4 -4 -17 5 -28
19 -18 23 -22 48 -30 175 -8 134 -7 158 11 231 15 63 19 106 17 187 -2 58 0
121 5 141 12 44 48 79 92 88 34 8 88 -4 88 -19 0 -5 17 -7 38 -4 26 3 45 13
63 35 22 25 29 28 40 17 8 -7 30 -13 49 -13 19 0 36 -4 37 -9 1 -5 7 -12 15
-17 7 -5 13 -21 13 -36 0 -23 5 -29 29 -31 19 -2 36 3 50 17 59 58 142 101
194 101 19 0 88 -52 112 -85 51 -68 92 -286 94 -502 0 -73 2 -133 4 -133 13 0
34 87 37 149 2 42 8 101 14 132 10 51 8 196 -4 207 -2 2 2 20 10 38 12 30 12
35 -1 42 -13 7 -14 16 -5 47 12 46 10 51 -29 58 -35 7 -40 27 -7 28 12 0 17 3
11 5 -6 3 -9 17 -6 32 5 25 4 26 -13 12 -17 -14 -18 -13 -11 25 5 31 4 36 -4
25 -9 -12 -11 -9 -7 13 4 27 4 27 -15 11 -14 -14 -21 -15 -30 -6 -9 9 -9 15 0
24 16 16 15 29 -2 22 -8 -3 -16 4 -20 18 -5 19 -8 20 -15 9 -8 -12 -11 -9 -16
11 -5 18 -12 25 -21 21 -9 -3 -19 7 -29 28 -8 19 -15 27 -15 19 0 -12 -3 -11
-11 3 -6 9 -14 15 -19 12 -14 -9 -40 61 -41 109 0 22 -3 35 -6 29 -7 -20 -33
-15 -33 5 0 10 -3 21 -6 25 -9 9 -36 -21 -29 -33 3 -5 0 -7 -8 -4 -8 3 -18 1
-22 -5 -10 -18 -22 -13 -61 27 -22 21 -30 27 -21 12 20 -29 22 -44 5 -33 -18
11 -38 15 -78 17 -28 1 -35 -3 -34 -16 2 -23 -7 -23 -33 1 -15 14 -24 16 -31
9 -8 -8 -17 0 -32 26 -22 36 -29 43 -31 29z m16 -268 c18 -14 17 -14 -19 0
-21 8 -40 15 -43 15 -2 0 -1 5 2 10 7 11 26 3 60 -25z m220 -75 c-3 -5 -14
-10 -23 -9 -14 0 -13 2 3 9 27 11 27 11 20 0z m-331 -26 c9 -3 16 -11 16 -16
0 -6 -8 -7 -17 -3 -10 4 -36 7 -58 7 -31 -1 -36 1 -20 8 24 10 58 12 79 4z
m434 -1226 c-3 -7 -17 -14 -31 -16 -21 -3 -26 0 -21 12 7 19 58 22 52 4z
m-131 -18 c3 -11 9 -20 14 -20 5 0 9 -9 9 -20 0 -20 -57 -72 -84 -76 -17 -2
-23 31 -7 41 6 3 8 15 6 27 -9 47 50 93 62 48z m293 -45 c0 -8 -4 -15 -9 -15
-10 0 -54 -80 -48 -87 3 -2 -7 -17 -21 -33 -17 -19 -36 -30 -53 -30 -15 0 -30
-6 -33 -12 -3 -7 -3 -3 0 9 4 18 2 22 -10 17 -9 -3 -13 -10 -10 -15 3 -5 -2
-6 -10 -3 -9 3 -16 2 -16 -4 0 -10 -59 6 -70 19 -7 9 -50 18 -47 10 1 -3 -2
-6 -8 -6 -25 0 15 67 67 110 21 18 38 25 52 20 44 -12 127 -11 146 2 11 8 20
11 20 8 0 -4 7 1 16 9 20 20 34 20 34 1z"/>
<path d="M615 2190 c3 -5 8 -10 11 -10 2 0 4 5 4 10 0 6 -5 10 -11 10 -5 0 -7
-4 -4 -10z"/>
<path d="M1141 1470 c-31 -29 -33 -33 -26 -83 9 -65 34 -90 77 -75 15 6 26 13
23 18 -2 4 6 17 20 30 30 28 54 21 48 -14 -5 -25 -5 -26 48 -23 51 3 55 5 66
38 19 54 15 75 -18 108 -29 30 -34 31 -118 31 -82 0 -88 -1 -120 -30z m224
-50 c10 -11 15 -20 12 -20 -14 0 -57 24 -57 32 0 15 27 8 45 -12z"/>
<path d="M871 1475 c-18 -8 -50 -15 -70 -15 -56 -1 -116 -33 -146 -79 -30 -44
-29 -87 3 -93 15 -4 81 19 123 42 12 6 22 3 35 -11 10 -11 30 -19 51 -19 31 0
32 -1 21 -21 -12 -19 -20 -21 -85 -16 -40 3 -73 4 -73 1 0 -14 67 -35 95 -30
34 7 117 45 100 46 -11 1 34 23 50 24 6 1 21 22 34 49 29 58 23 90 -22 117
-38 23 -70 25 -116 5z"/>
<path d="M1256 1271 l-29 -6 37 -13 c29 -11 40 -11 51 -2 33 28 9 36 -59 21z"/>
<path d="M390 1045 c0 -10 33 -35 46 -35 24 0 15 15 -16 27 -16 6 -30 10 -30
8z"/>
<path d="M1033 1009 c-29 -8 -33 -14 -33 -43 0 -29 4 -34 38 -44 20 -6 58 -14
85 -17 43 -7 47 -6 47 14 0 11 4 21 9 21 6 0 9 8 9 18 -1 9 2 27 6 40 7 22 -7
32 -19 12 -3 -5 -24 -10 -45 -10 -21 0 -42 5 -45 10 -7 11 -9 11 -52 -1z"/>
<path d="M1365 400 c48 -92 -11 -220 -155 -335 -33 -26 -60 -52 -60 -57 0 -4
276 -8 612 -8 l613 0 -37 25 c-20 14 -41 25 -46 25 -5 0 -30 12 -56 26 -25 14
-74 29 -108 34 -50 7 -68 15 -87 36 -28 34 -104 43 -166 22 -45 -16 -81 -7
-137 34 -32 22 -88 41 -88 28 0 -4 9 -10 20 -13 14 -4 20 -14 20 -35 l0 -30
-40 39 c-22 22 -40 44 -40 49 0 15 -232 190 -251 190 -5 0 -3 -13 6 -30z"/>
<path d="M463 322 c-76 -61 -215 -205 -226 -235 -4 -10 -11 -15 -17 -12 -6 4
-8 12 -4 18 3 7 -3 3 -13 -8 -10 -11 -29 -21 -43 -21 -26 -2 -144 -44 -156
-57 -4 -4 153 -7 350 -7 305 0 356 2 349 14 -24 43 -118 127 -154 137 l-39 12
0 59 c0 32 6 71 14 86 20 39 29 72 19 72 -4 0 -40 -26 -80 -58z"/>
</g>
</svg>
